<?xml version="1.0" encoding="UTF-8" standalone="no"?>
<svg
   xmlns:dc="http://purl.org/dc/elements/1.1/"
   xmlns:cc="http://creativecommons.org/ns#"
   xmlns:rdf="http://www.w3.org/1999/02/22-rdf-syntax-ns#"
   xmlns:svg="http://www.w3.org/2000/svg"
   xmlns="http://www.w3.org/2000/svg"
   xmlns:sodipodi="http://sodipodi.sourceforge.net/DTD/sodipodi-0.dtd"
   xmlns:inkscape="http://www.inkscape.org/namespaces/inkscape"
   width="1920"
   height="1080"
   viewBox="0 0 508.00001 285.74999"
   version="1.1"
   id="svg2974"
   inkscape:version="1.0.1 (c497b03c, 2020-09-10)"
   sodipodi:docname="2D_Right_Y_Symmetry_X_Translation.svg"
   inkscape:export-filename="/Users/sarahplaci/Dropbox/Sarah_Simon/SarahSimon_Science/Transformational geometry in humans/Alien_Planet/BetweenObjects/2D_Stimuli/Symmetry_Right/2D_Right_Y_Symmetry_X_Translation.png"
   inkscape:export-xdpi="96"
   inkscape:export-ydpi="96">
  <defs
     id="defs2968" />
  <sodipodi:namedview
     id="base"
     pagecolor="#484848"
     bordercolor="#666666"
     borderopacity="1.0"
     inkscape:pageopacity="0"
     inkscape:pageshadow="2"
     inkscape:zoom="0.43327804"
     inkscape:cx="647.00479"
     inkscape:cy="450.00147"
     inkscape:document-units="mm"
     inkscape:current-layer="layer8"
     inkscape:document-rotation="0"
     showgrid="false"
     units="px"
     inkscape:showpageshadow="false"
     borderlayer="true"
     inkscape:pagecheckerboard="false"
     inkscape:window-width="1280"
     inkscape:window-height="778"
     inkscape:window-x="0"
     inkscape:window-y="0"
     inkscape:window-maximized="0" />
  <metadata
     id="metadata2971">
    <rdf:RDF>
      <cc:Work
         rdf:about="">
        <dc:format>image/svg+xml</dc:format>
        <dc:type
           rdf:resource="http://purl.org/dc/dcmitype/StillImage" />
        <dc:title />
      </cc:Work>
    </rdf:RDF>
  </metadata>
  <g
     inkscape:label="Background"
     inkscape:groupmode="layer"
     id="layer1">
    <rect
       style="opacity:0.53;fill:#ffffff;stroke-width:0.264583"
       id="rect3538"
       width="508"
       height="285.75"
       x="0.75595242"
       y="0"
       rx="1.1469714e-05"
       ry="1.1469714e-05" />
    <path
       style="opacity:0.53;fill:#ffffff;stroke-width:2.85714"
       d="M 4.2857143,540 V 0 H 962.85714 1921.4286 v 540 540 H 962.85714 4.2857143 Z"
       id="path3540"
       transform="scale(0.26458333)" />
    <path
       style="opacity:0.53;fill:#ffffff;stroke-width:2.85714"
       d="M 4.2857143,540 V 0 H 962.85714 1921.4286 v 540 540 H 962.85714 4.2857143 Z"
       id="path3542"
       transform="scale(0.26458333)" />
    <path
       style="opacity:0.53;fill:#ffffff;stroke-width:2.85714"
       d="M 4.2857143,540 V 0 H 962.85714 1921.4286 v 540 540 H 962.85714 4.2857143 Z"
       id="path3544"
       transform="scale(0.26458333)" />
    <path
       style="opacity:0.53;fill:#ffffff;stroke-width:2.85714"
       d="M 4.2857143,540 V 0 H 962.85714 1921.4286 v 540 540 H 962.85714 4.2857143 Z"
       id="path3546"
       transform="scale(0.26458333)" />
    <path
       style="opacity:0.53;fill:#ffffff;stroke-width:2.85714"
       d="M 4.2857143,540 V 0 H 962.85714 1921.4286 v 540 540 H 962.85714 4.2857143 Z"
       id="path3548"
       transform="scale(0.26458333)" />
    <path
       style="opacity:0.53;fill:#ffffff;stroke-width:2.85714"
       d="M 4.2857143,540 V 0 H 962.85714 1921.4286 v 540 540 H 962.85714 4.2857143 Z"
       id="path3550"
       transform="scale(0.26458333)" />
    <path
       style="opacity:0.53;fill:#ffffff;stroke-width:2.85714"
       d="M 4.2857143,540 V 0 H 962.85714 1921.4286 v 540 540 H 962.85714 4.2857143 Z"
       id="path3552"
       transform="scale(0.26458333)" />
    <path
       style="opacity:0.53;fill:#ffffff;stroke-width:2.85714"
       d="M 4.2857143,540 V 0 H 962.85714 1921.4286 v 540 540 H 962.85714 4.2857143 Z"
       id="path3554"
       transform="scale(0.26458333)" />
    <path
       style="opacity:0.53;fill:#ffffff;stroke-width:2.85714"
       d="M 4.2857143,540 V 0 H 962.85714 1921.4286 v 540 540 H 962.85714 4.2857143 Z"
       id="path3556"
       transform="scale(0.26458333)" />
    <path
       style="opacity:0.53;fill:#ffffff;stroke-width:2.85714"
       d="M 4.2857143,540 V 0 H 962.85714 1921.4286 v 540 540 H 962.85714 4.2857143 Z"
       id="path3558"
       transform="scale(0.26458333)" />
    <path
       style="opacity:0.53;fill:#ffffff;stroke-width:2.85714"
       d="M 4.2857143,540 V 0 H 962.85714 1921.4286 v 540 540 H 962.85714 4.2857143 Z"
       id="path3560"
       transform="scale(0.26458333)" />
    <path
       style="opacity:0.53;fill:#ffffff;stroke-width:2.85714"
       d="M 4.2857143,540 V 0 H 962.85714 1921.4286 v 540 540 H 962.85714 4.2857143 Z"
       id="path3562"
       transform="scale(0.26458333)" />
    <path
       style="opacity:0.53;fill:#ffffff;stroke-width:2.85714"
       d="M 4.2857143,540 V 0 H 962.85714 1921.4286 v 540 540 H 962.85714 4.2857143 Z"
       id="path3564"
       transform="scale(0.26458333)" />
    <path
       style="opacity:0.53;fill:#ffffff;stroke-width:2.85714"
       d="M 4.2857143,540 V 0 H 962.85714 1921.4286 v 540 540 H 962.85714 4.2857143 Z"
       id="path3566"
       transform="scale(0.26458333)" />
    <path
       style="opacity:0.53;fill:#ffffff;stroke-width:2.85714"
       d="M 4.2857143,540 V 0 H 962.85714 1921.4286 v 540 540 H 962.85714 4.2857143 Z"
       id="path3568"
       transform="scale(0.26458333)" />
    <path
       style="opacity:0.53;fill:#ffffff;stroke-width:2.85714"
       d="M 4.2857143,540 V 0 H 962.85714 1921.4286 v 540 540 H 962.85714 4.2857143 Z"
       id="path3570"
       transform="scale(0.26458333)" />
    <path
       style="opacity:0.53;fill:#ffffff;stroke-width:0.756515"
       d="M -7.0000006e-7,142.875 V 0 H 253.99999 508 V 142.875 285.75 H 253.99999 -7.0000006e-7 Z"
       id="path3572" />
  </g>
  <g
     inkscape:groupmode="layer"
     id="layer6"
     inkscape:label="Sky">
    <rect
       style="opacity:1;fill:#b3b3b3;fill-opacity:1;stroke:none;stroke-width:5.00091;stroke-miterlimit:4;stroke-dasharray:none"
       id="rect3637"
       width="540.70599"
       height="329.59521"
       x="-18.142859"
       y="-0.7559405"
       rx="1.1469714e-05"
       ry="1.1469714e-05" />
    <rect
       style="display:inline;fill:#cccccc;fill-opacity:1;fill-rule:evenodd;stroke:#000000;stroke-width:1.45697;stroke-miterlimit:4;stroke-dasharray:none;stroke-opacity:1"
       id="rect3623"
       width="186.83803"
       height="276.49002"
       x="44.899216"
       y="4.6531858"
       rx="15.080919"
       ry="13.306705" />
    <rect
       style="display:inline;fill:#cccccc;fill-opacity:1;fill-rule:evenodd;stroke:#000000;stroke-width:1.45697;stroke-miterlimit:4;stroke-dasharray:none;stroke-opacity:1"
       id="rect3623-7"
       width="186.83803"
       height="276.49002"
       x="275.86859"
       y="4.6531858"
       rx="15.080919"
       ry="13.306705" />
    <path
       style="display:inline;fill:#000000;fill-opacity:1;fill-rule:nonzero;stroke:none;stroke-width:0.160969"
       d="M 179.54286,209.42053 V 76.375531 h 44.553 z"
       id="path229-8-3" />
  </g>
  <g
     inkscape:groupmode="layer"
     id="layer7"
     inkscape:label="Sun"
     style="display:none;opacity:1">
    <circle
       style="opacity:0.321543;fill:#ffffff;fill-opacity:1;stroke:#ffffff;stroke-width:0.708008"
       id="path3664-8-0"
       cx="254"
       cy="136.92128"
       r="92.854332" />
    <circle
       style="opacity:0.569132;fill:#ffffff;fill-opacity:1;stroke:#ffffff;stroke-width:0.610391"
       id="path3664-8"
       cx="254"
       cy="136.92128"
       r="80.051941" />
    <circle
       style="opacity:1;fill:#ffffff;fill-opacity:1;stroke:#ffffff;stroke-width:0.489805"
       id="path3664"
       cx="254"
       cy="136.92128"
       r="64.237236" />
  </g>
  <g
     inkscape:groupmode="layer"
     id="layer5"
     inkscape:label="Hills"
     style="display:none">
    <path
       style="fill:#f4cae0;fill-opacity:1;stroke:none;stroke-width:0.264583px;stroke-linecap:butt;stroke-linejoin:miter;stroke-opacity:1"
       d="m -37.041667,219.30186 c 0,0 52.160714,-80.88691 123.976189,-57.45238 71.815468,23.43452 61.232138,-24.94643 122.464278,-1.51191 61.23214,23.43452 57.45238,-30.99404 118.68453,-3.77976 61.23215,27.21429 37.7976,-18.89881 101.2976,-4.53571 63.5,14.36309 82.39883,-3.77976 82.39883,-3.77976 l 5.29165,224.51784 -595.690458,-14.36309 z"
       id="path3634"
       sodipodi:nodetypes="csssscccc" />
  </g>
  <g
     inkscape:groupmode="layer"
     id="layer4"
     inkscape:label="Dune2"
     style="display:none">
    <path
       style="fill:#d7b9d5;fill-opacity:1;stroke:none;stroke-width:0.264583px;stroke-linecap:butt;stroke-linejoin:miter;stroke-opacity:1"
       d="m -15.875,220.58699 c 0,0 39.038007,-48.25195 89.958332,-21.16667 35.529758,18.89881 42.995978,-20.21224 117.172618,3.02381 62.74404,19.65476 134.69655,-38.55638 204.10715,-6.04762 59.72024,27.97024 131.53569,-9.07143 131.53569,-9.07143 l -7.55952,169.33332 -577.547603,5.29167 z"
       id="path3631"
       sodipodi:nodetypes="cssscccc" />
  </g>
  <g
     inkscape:groupmode="layer"
     id="layer2"
     inkscape:label="Dune1"
     style="display:inline">
    <g
       id="g3621"
       transform="matrix(0.26458333,0,0,0.26458333,102.43155,-74.335569)">
      <rect
         fill="#b1f8f2"
         x="0"
         y="0"
         width="100"
         height="220"
         id="rect3592" />
      <rect
         fill="#bcd39c"
         x="100"
         y="0"
         width="100"
         height="220"
         id="rect3594" />
      <rect
         fill="#fffc99"
         x="200"
         y="0"
         width="100"
         height="220"
         id="rect3596" />
      <rect
         fill="#eafdcf"
         x="300"
         y="0"
         width="100"
         height="220"
         id="rect3598" />
      <rect
         fill="#8e8358"
         x="400"
         y="0"
         width="100"
         height="220"
         id="rect3600" />
      <text
         x="10"
         y="235"
         font-family="Arial"
         font-size="6px"
         alignment-baseline="middle"
         id="text3602">Exported from Coolors.co</text>
      <text
         x="490"
         y="235"
         font-family="Arial"
         font-size="6px"
         alignment-baseline="middle"
         text-anchor="end"
         id="text3604">https://coolors.co/b1f8f2-bcd39c-fffc99-eafdcf-8e8358</text>
    </g>
    <g
       id="g109"
       transform="matrix(0.26458333,0,0,0.26458333,285.80568,-80.310155)">
      <rect
         fill="#64a6bd"
         x="0"
         y="0"
         width="100"
         height="220"
         id="rect80" />
      <rect
         fill="#90a8c3"
         x="100"
         y="0"
         width="100"
         height="220"
         id="rect82" />
      <rect
         fill="#ada7c9"
         x="200"
         y="0"
         width="100"
         height="220"
         id="rect84" />
      <rect
         fill="#d7b9d5"
         x="300"
         y="0"
         width="100"
         height="220"
         id="rect86" />
      <rect
         fill="#f4cae0"
         x="400"
         y="0"
         width="100"
         height="220"
         id="rect88" />
      <text
         x="10"
         y="235"
         font-family="Arial"
         font-size="6px"
         alignment-baseline="middle"
         id="text90">Exported from Coolors.co</text>
      <text
         x="490"
         y="235"
         font-family="Arial"
         font-size="6px"
         alignment-baseline="middle"
         text-anchor="end"
         id="text92">https://coolors.co/64a6bd-90a8c3-ada7c9-d7b9d5-f4cae0</text>
    </g>
  </g>
  <g
     inkscape:groupmode="layer"
     id="layer8"
     inkscape:label="Object">
    <path
       style="display:inline;fill:#000000;fill-opacity:1;fill-rule:nonzero;stroke:none;stroke-width:0.160969"
       d="M 391.56408,209.42053 V 76.375541 H 347.0111 Z"
       id="path229-8-3-3" />
  </g>
</svg>
